<?xml version="1.0" encoding="utf-8"?>
<!-- Generator: Adobe Illustrator 18.0.0, SVG Export Plug-In . SVG Version: 6.00 Build 0)  -->
<!DOCTYPE svg PUBLIC "-//W3C//DTD SVG 1.1//EN" "http://www.w3.org/Graphics/SVG/1.1/DTD/svg11.dtd">
<svg version="1.1" id="Capa_1" xmlns="http://www.w3.org/2000/svg" xmlns:xlink="http://www.w3.org/1999/xlink" x="0px" y="0px"
	 viewBox="-16.6 155.6 875 875" enable-background="new -16.6 155.6 875 875" xml:space="preserve">
<rect x="250" y="453.6" fill="#FAA62C" width="340" height="519"/>
<path fill="#000002" d="M568.6,258.1H539v-44.9c0-21.6-17.6-39.2-39.2-39.2H340.2c-21.6,0-39.2,17.6-39.2,39.2v44.9h-29.6
	c-35.8,0-64.9,29.1-64.9,64.9V951c0,35.8,29.1,64.9,64.9,64.9h297.2c35.8,0,64.9-29.1,64.9-64.9V323.1
	C633.5,287.3,604.4,258.1,568.6,258.1z M344.5,217.6h150.9v40.5H344.5V217.6z M271.4,301.7h68.8h159.6h68.8
	c11.8,0,21.4,9.6,21.4,21.4v87.5H250v-87.5C250,311.3,259.6,301.7,271.4,301.7z M568.6,972.4H271.4c-11.8,0-21.4-9.6-21.4-21.4
	V454.1h340V951C590,962.8,580.4,972.4,568.6,972.4z"/>
<path fill="#000002" d="M367.6,712.4h101.6c12,0,21.8-9.7,21.8-21.8c0-12-9.7-21.8-21.8-21.8H367.6c-12,0-21.8,9.7-21.8,21.8
	C345.9,702.7,355.6,712.4,367.6,712.4z"/>
<path fill="#000002" d="M419.4,830c76.8,0,139.3-62.5,139.3-139.3s-62.5-139.3-139.3-139.3s-139.3,62.5-139.3,139.3
	S342.6,830,419.4,830z M419.4,594.9c52.8,0,95.8,43,95.8,95.8s-43,95.8-95.8,95.8s-95.8-43-95.8-95.8
	C323.6,637.8,366.6,594.9,419.4,594.9z"/>
</svg>
