<?xml version="1.0" encoding="utf-8"?>
<!-- Generator: Adobe Illustrator 18.0.0, SVG Export Plug-In . SVG Version: 6.00 Build 0)  -->
<!DOCTYPE svg PUBLIC "-//W3C//DTD SVG 1.1//EN" "http://www.w3.org/Graphics/SVG/1.1/DTD/svg11.dtd">
<svg version="1.1" id="Capa_1" xmlns="http://www.w3.org/2000/svg" xmlns:xlink="http://www.w3.org/1999/xlink" x="0px" y="0px"
	 viewBox="-16.6 155.6 875 875" enable-background="new -16.6 155.6 875 875" xml:space="preserve">
<g>
	<path fill="#000002" d="M612.8,813.1"/>
	<path fill="#000002" d="M833,822.7L645.8,482.6c-3.5-6.3-7.9-11.4-12.9-15.1V323c0-35.8-29.1-64.9-64.9-64.9h-29.6v-44.9
		c0-21.6-17.6-39.2-39.2-39.2H339.6c-21.6,0-39.2,17.6-39.2,39.2v44.9h-29.6c-35.8,0-64.9,29.1-64.9,64.9v627.9
		c0,35.8,29.1,64.9,64.9,64.9H568c35.8,0,64.9-29.1,64.9-64.9v-70.5h166c15.5,0,28.3-6.6,35.1-18.2
		C840.9,850.7,840.5,836.3,833,822.7z M343.9,217.5h150.9v40.5H343.9V217.5z M589.4,950.9c0,11.8-9.6,21.4-21.4,21.4H270.8
		c-11.8,0-21.4-9.6-21.4-21.4V323c0-11.8,9.6-21.4,21.4-21.4h68.8h159.6H568c11.8,0,21.4,9.6,21.4,21.4v147.2
		c-3.7,3.3-7,7.5-9.7,12.4L392.5,822.7c-7.5,13.6-7.9,28-1,39.5s19.6,18.2,35.1,18.2h162.7V950.9z M434.4,836.8l175.3-318.4
		c0.5,0,1,0.1,1.4,0.1c1.5,0,3-0.2,4.5-0.5l175.5,318.8H434.4z"/>
</g>
<polyline fill="#FF0043" points="798.4,844.2 426.4,844.2 610.4,503.2 "/>
<path fill="#000002" d="M612.4,592.8c-12,0-21.8,9.7-21.8,21.8V729c0,12,9.7,21.8,21.8,21.8s21.8-9.7,21.8-21.8V614.5
	C634.2,602.5,624.5,592.8,612.4,592.8z"/>
<path fill="#000002" d="M612.4,812.5c12,0,21.8-9.7,21.8-21.8v-7.8c0-12-9.7-21.8-21.8-21.8s-21.8,9.7-21.8,21.8v7.8
	C590.7,802.8,600.4,812.5,612.4,812.5"/>
</svg>
